# File created by Blade
# Date/Time:  Thu Jan 22 19:18:24 2015
#---------------------------------------------------------
:version 1.10
:name HOM
:units
  mass 1.0
  length 1.000000
  angle deg
:documentation
     Acclaim Skeleton File
:root
   axis xyz
   order TX TY TZ RX RY RZ
   position 0.000000 0.000000 0.000000
   orientation 0 0 0
:bonedata
   begin
      id 1
      name RightUpLeg_dum
      direction -1.000000 0.000000 0.000000
      length 4.478084
      axis 0.0 0.0 0.0 xyz
   end
   begin
      id 2
      name LeftUpLeg_dum
      direction 1.000000 0.000000 0.000000
      length 4.478084
      axis 0.0 0.0 0.0 xyz
   end
   begin
      id 3
      name Spine_dum
      direction 0.000000 1.000000 0.000000
      length 6.068208
      axis 0.0 0.0 0.0 xyz
   end
   begin
      id 4
      name RightUpLeg
      direction 0.000000 -1.000000 0.000000
      length 16.405774
      axis 0.0 0.0 0.0 xyz
      dof rx ry rz
   end
   begin
      id 5
      name RightLeg
      direction 0.000000 -1.000000 0.000000
      length 14.644143
      axis 0.0 0.0 0.0 xyz
      dof rx ry rz
   end
   begin
      id 6
      name RightFoot
      direction 0.000000 -0.258819 0.965926
      length 5.806150
      axis 15.0 0.0 0.0 xyz
      dof rx ry rz
   end
   begin
      id 7
      name RightToeBase
      direction 0.000000 0.000000 1.000000
      length 2.952750
      axis 0.0 0.0 0.0 xyz
      dof rx ry rz
   end
   begin
      id 8
      name LeftUpLeg
      direction 0.000000 -1.000000 0.000000
      length 16.405774
      axis 0.0 0.0 0.0 xyz
      dof rx ry rz
   end
   begin
      id 9
      name LeftLeg
      direction 0.000000 -1.000000 0.000000
      length 14.644143
      axis 0.0 0.0 0.0 xyz
      dof rx ry rz
   end
   begin
      id 10
      name LeftFoot
      direction 0.000000 -0.258819 0.965926
      length 5.806150
      axis 15.0 0.0 0.0 xyz
      dof rx ry rz
   end
   begin
      id 11
      name LeftToeBase
      direction 0.000000 0.000000 1.000000
      length 2.952750
      axis 0.0 0.0 0.0 xyz
      dof rx ry rz
   end
   begin
      id 12
      name Spine
      direction 0.000000 1.000000 0.000000
      length 0.000000
      axis 0.0 0.0 0.0 xyz
      dof rx ry rz
   end
   begin
      id 13
      name Spine_dum1
      direction 0.000000 1.000000 0.000000
      length 10.013923
      axis 0.0 0.0 0.0 xyz
   end
   begin
      id 14
      name Spine_dum2
      direction 0.000000 1.000000 0.000000
      length 10.013923
      axis 0.0 0.0 0.0 xyz
   end
   begin
      id 15
      name Spine_dum3
      direction 0.000000 1.000000 0.000000
      length 15.777476
      axis 0.0 0.0 0.0 xyz
   end
   begin
      id 16
      name RightShoulder
      direction -1.000000 0.000000 0.000000
      length 7.190220
      axis 0.0 0.0 90.0 xyz
      dof rx ry rz
   end
   begin
      id 17
      name RightArm
      direction -1.000000 0.000000 0.000000
      length 10.177469
      axis 0.0 0.0 90.0 xyz
      dof rx ry rz
   end
   begin
      id 18
      name RightForeArm
      direction -1.000000 0.000000 0.000000
      length 8.392114
      axis 0.0 0.0 90.0 xyz
      dof ry rz rx
   end
   begin
      id 19
      name RightHand
      direction -1.000000 0.000000 0.000000
      length 0.000000
      axis 0.0 0.0 90.0 xyz
      dof rx ry rz
   end
   begin
      id 20
      name RightHand_dum1
      direction -1.000000 0.000000 0.000000
      length 3.937000
      axis 0.0 0.0 90.0 xyz
   end
   begin
      id 21
      name RightHand_dum2
      direction 0.000000 0.000000 0.000000
      length 0.000000
      axis 0.0 0.0 90.0 xyz
   end
   begin
      id 22
      name RightHandThumb1
      direction 0.000000 0.000000 1.000000
      length 3.937000
      axis 0.0 0.0 90.0 xyz
      dof rx rz ry
   end
   begin
      id 23
      name LeftShoulder
      direction 1.000000 0.000000 0.000000
      length 7.190220
      axis 0.0 0.0 -90.0 xyz
      dof rx ry rz
   end
   begin
      id 24
      name LeftArm
      direction 1.000000 0.000000 0.000000
      length 10.177469
      axis 0.0 0.0 -90.0 xyz
      dof rx ry rz
   end
   begin
      id 25
      name LeftForeArm
      direction 1.000000 0.000000 0.000000
      length 8.392114
      axis 0.0 0.0 -90.0 xyz
      dof ry rz rx
   end
   begin
      id 26
      name LeftHand
      direction 1.000000 0.000000 0.000000
      length 0.000000
      axis 0.0 0.0 -90.0 xyz
      dof rx ry rz
   end
   begin
      id 27
      name LeftHand_dum1
      direction 1.000000 0.000000 0.000000
      length 3.937000
      axis 0.0 0.0 -90.0 xyz
   end
   begin
      id 28
      name LeftHand_dum2
      direction 0.000000 0.000000 0.000000
      length 0.000000
      axis 0.0 0.0 -90.0 xyz
   end
   begin
      id 29
      name LeftHandThumb1
      direction 0.000000 0.000000 1.000000
      length 3.937000
      axis 0.0 0.0 -90.0 xyz
      dof rx rz ry
   end
   begin
      id 30
      name Head
      direction 0.000000 1.000000 0.000000
      length 4.527550
      axis 0.0 0.0 0.0 xyz
      dof rx ry rz
   end
:hierarchy
   begin
      root RightUpLeg_dum LeftUpLeg_dum Spine_dum
      RightUpLeg_dum RightUpLeg
      LeftUpLeg_dum LeftUpLeg
      Spine_dum Spine
      RightUpLeg RightLeg
      RightLeg RightFoot
      RightFoot RightToeBase
      LeftUpLeg LeftLeg
      LeftLeg LeftFoot
      LeftFoot LeftToeBase
      Spine Spine_dum1 Spine_dum2 Spine_dum3
      Spine_dum1 RightShoulder
      Spine_dum2 LeftShoulder
      Spine_dum3 Head
      RightShoulder RightArm
      RightArm RightForeArm
      RightForeArm RightHand
      RightHand RightHand_dum1 RightHand_dum2
      RightHand_dum2 RightHandThumb1
      LeftShoulder LeftArm
      LeftArm LeftForeArm
      LeftForeArm LeftHand
      LeftHand LeftHand_dum1 LeftHand_dum2
      LeftHand_dum2 LeftHandThumb1
   end

# File created by Blade
# Date/Time:  Thu Jan 22 19:18:16 2015
# Frame Rate: 120.000 fps
#------------------------------------------------------
:FULLY-SPECIFIED
:DEGREES
261
root 0.404086 32.593758 -2.771210 19.024611 -7.181284 3.094542
RightUpLeg -19.032795 -5.146876 -11.229679
RightLeg 2.408811 -0.000000 -0.000000
RightFoot -9.975944 -0.323003 6.556696
RightToeBase 5.751844 -0.000000 -0.000000
LeftUpLeg -16.427859 9.648732 8.238455
LeftLeg 4.695909 -0.000000 -0.000000
LeftFoot -8.964584 -2.958943 -20.836449
LeftToeBase -4.879049 -0.000000 0.000000
Spine -2.702612 -2.280468 9.555477
RightShoulder -16.120845 -9.581087 -27.220722
RightArm 22.866339 25.442893 41.983534
RightForeArm -12.465677 -0.000000 18.069350
RightHand 14.768769 0.000000 3.166673
RightHandThumb1 -24.326973 -0.000000 -32.862282
LeftShoulder -21.023145 2.278005 25.839370
LeftArm 21.412576 -24.984966 -45.266906
LeftForeArm 18.951734 -0.000000 1.744211
LeftHand -0.437148 -0.000000 -6.996600
LeftHandThumb1 -26.253704 0.000000 33.147579
Head -14.729979 0.336902 -3.908780
262
root 0.445056 32.597217 -2.881340 19.410698 -7.310461 3.224206
RightUpLeg -19.698490 -5.116372 -11.408155
RightLeg 2.515909 -0.000000 -0.000000
RightFoot -9.926424 -0.543204 5.872534
RightToeBase 6.005880 -0.000000 -0.000000
LeftUpLeg -16.945698 10.105431 7.886960
LeftLeg 4.636659 -0.000000 -0.000000
LeftFoot -8.994223 -2.427953 -20.735022
LeftToeBase -5.646584 -0.000000 0.000000
Spine -2.544004 -2.288085 9.639178
RightShoulder -15.951341 -9.550886 -27.267198
RightArm 22.943039 25.350352 42.093461
RightForeArm -12.334704 -0.000000 18.104848
RightHand 14.600056 -0.000000 3.013897
RightHandThumb1 -24.326973 -0.000000 -32.862282
LeftShoulder -20.807267 2.049893 25.893947
LeftArm 21.583083 -24.708101 -45.343742
LeftForeArm 18.934538 -0.000000 1.747638
LeftHand -0.377920 0.000000 -7.049865
LeftHandThumb1 -26.253704 0.000000 33.147579
Head -15.052418 0.248455 -3.888595
263
root 0.482640 32.599937 -2.995286 19.783554 -7.414836 3.337522
RightUpLeg -20.377585 -5.150629 -11.547463
RightLeg 2.669164 -0.000000 -0.000000
RightFoot -9.954624 -0.665383 5.291614
RightToeBase 6.296777 -0.000000 -0.000000
LeftUpLeg -17.498354 10.646803 7.531286
LeftLeg 4.635579 -0.000000 -0.000000
LeftFoot -9.048173 -1.880665 -20.583458
LeftToeBase -6.026491 -0.000000 0.000000
Spine -2.297436 -2.296722 9.734363
RightShoulder -15.862165 -9.369825 -27.267627
RightArm 22.992264 25.262940 42.157159
RightForeArm -12.157586 -0.000000 18.124874
RightHand 14.638102 0.000000 3.096400
RightHandThumb1 -24.326973 -0.000000 -32.862282
LeftShoulder -20.667315 1.795842 25.922845
LeftArm 21.854014 -24.316968 -45.372882
LeftForeArm 18.945656 -0.000000 1.761681
LeftHand -0.335414 -0.000000 -7.035157
LeftHandThumb1 -26.253704 0.000000 33.147579
Head -15.521576 0.106152 -3.818838
264
root 0.520299 32.601559 -3.101486 20.158234 -7.516047 3.435427
RightUpLeg -20.990190 -5.121816 -11.697772
RightLeg 2.720760 -0.000000 -0.000000
RightFoot -9.971983 -0.795684 4.835499
RightToeBase 6.372102 -0.000000 -0.000000
LeftUpLeg -18.040279 11.227195 7.164194
LeftLeg 4.615447 -0.000000 -0.000000
LeftFoot -9.050601 -1.241414 -20.356618
LeftToeBase -6.810344 -0.000000 0.000000
Spine -2.086167 -2.354048 9.876107
RightShoulder -15.697483 -9.233381 -27.305810
RightArm 23.050082 25.272074 42.310159
RightForeArm -12.329469 -0.000000 18.170577
RightHand 14.679086 -0.000000 3.092267
RightHandThumb1 -24.326973 -0.000000 -32.862282
LeftShoulder -20.545357 1.643007 25.934771
LeftArm 22.207394 -24.108154 -45.512901
LeftForeArm 19.107837 -0.000000 1.770468
LeftHand -0.293850 -0.000000 -7.011886
LeftHandThumb1 -26.253704 0.000000 33.147579
Head -15.928377 0.012638 -3.802670
265
root 0.557408 32.601966 -3.210290 20.563597 -7.628547 3.545356
RightUpLeg -21.663696 -5.133313 -11.847633
RightLeg 2.824394 -0.000000 -0.000000
RightFoot -10.023174 -0.921502 4.165014
RightToeBase 6.342671 -0.000000 -0.000000
LeftUpLeg -18.629729 11.828574 6.769437
LeftLeg 4.624073 -0.000000 -0.000000
LeftFoot -9.112360 -0.653148 -20.426537
LeftToeBase -6.785297 -0.000000 0.000000
Spine -1.910262 -2.362568 9.993535
RightShoulder -15.545834 -9.092747 -27.330882
RightArm 23.091354 25.167278 42.372146
RightForeArm -12.163572 -0.000000 18.183640
RightHand 14.773640 -0.000000 2.995796
RightHandThumb1 -24.326973 -0.000000 -32.862282
LeftShoulder -20.341985 1.425933 25.978500
LeftArm 22.461448 -23.828306 -45.560457
LeftForeArm 19.179458 -0.000000 1.807819
LeftHand -0.232966 -0.000000 -7.078086
LeftHandThumb1 -26.253704 0.000000 33.147579
Head -16.286382 -0.068696 -3.752827
266
root 0.595676 32.602042 -3.318430 20.947009 -7.704661 3.659907
RightUpLeg -22.279401 -5.124218 -12.020542
RightLeg 2.885167 -0.000000 -0.000000
RightFoot -10.050788 -1.165702 3.560357
RightToeBase 6.232590 -0.000000 -0.000000
LeftUpLeg -19.233896 12.456127 6.334631
LeftLeg 4.646751 -0.000000 -0.000000
LeftFoot -9.158180 0.006130 -20.231936
LeftToeBase -6.866781 -0.000000 0.000000
Spine -1.693106 -2.462764 10.145993
RightShoulder -15.367484 -8.922388 -27.374430
RightArm 23.139927 25.103277 42.464990
RightForeArm -12.057999 -0.000000 18.243743
RightHand 14.847660 0.000000 2.954901
RightHandThumb1 -24.326973 -0.000000 -32.862282
LeftShoulder -20.247319 1.297948 25.964438
LeftArm 22.851941 -23.555533 -45.640091
LeftForeArm 19.293096 -0.000000 1.927456
LeftHand -0.319622 -0.000000 -7.195861
LeftHandThumb1 -26.253704 0.000000 33.147579
Head -16.693188 -0.168206 -3.725116
267
root 0.630164 32.601278 -3.425603 21.358639 -7.786254 3.746067
RightUpLeg -22.920105 -5.068268 -12.176343
RightLeg 2.961460 -0.000000 -0.000000
RightFoot -10.111571 -1.424866 3.009464
RightToeBase 5.785300 -0.000000 -0.000000
LeftUpLeg -19.876005 13.116433 5.913289
LeftLeg 4.696185 -0.000000 -0.000000
LeftFoot -9.168198 0.638924 -19.984701
LeftToeBase -6.984995 -0.000000 0.000000
Spine -1.493391 -2.519438 10.332010
RightShoulder -15.257018 -8.847199 -27.397185
RightArm 23.295298 25.051177 42.595792
RightForeArm -11.839737 -0.000000 18.324765
RightHand 14.914155 -0.000000 2.901756
RightHandThumb1 -24.326973 -0.000000 -32.862282
LeftShoulder -20.126934 1.113594 25.949612
LeftArm 23.247169 -23.246346 -45.672843
LeftForeArm 19.378229 0.000000 1.965236
LeftHand -0.262787 -0.000000 -7.215463
LeftHandThumb1 -26.253704 0.000000 33.147579
Head -17.106897 -0.293625 -3.691836
268
root 0.666376 32.599736 -3.532362 21.765711 -7.849476 3.864244
RightUpLeg -23.539858 -5.089961 -12.341728
RightLeg 3.015815 -0.000000 -0.000000
RightFoot -10.106589 -1.699749 2.212686
RightToeBase 5.430526 -0.000000 -0.000000
LeftUpLeg -20.545871 13.732002 5.448865
LeftLeg 4.777711 -0.000000 -0.000000
LeftFoot -9.102590 1.389159 -19.426574
LeftToeBase -7.041134 -0.000000 0.000000
Spine -1.284519 -2.599506 10.489473
RightShoulder -15.138109 -8.700004 -27.402681
RightArm 23.404002 24.945637 42.685025
RightForeArm -11.777820 -0.000000 18.378626
RightHand 14.897188 -0.000000 2.542025
RightHandThumb1 -24.326973 -0.000000 -32.862282
LeftShoulder -19.970051 0.773761 26.061923
LeftArm 23.452350 -22.814589 -45.719817
LeftForeArm 19.536003 -0.000000 2.115272
LeftHand -0.353175 0.000000 -7.095306
LeftHandThumb1 -26.253704 0.000000 33.147579
Head -17.524053 -0.383051 -3.640957
269
root 0.702363 32.597502 -3.640332 22.186772 -7.898069 3.978903
RightUpLeg -24.163700 -5.097556 -12.507014
RightLeg 3.055870 -0.000000 -0.000000
RightFoot -10.003830 -2.127059 1.326893
RightToeBase 4.848657 -0.000000 -0.000000
LeftUpLeg -21.220347 14.296646 4.991577
LeftLeg 4.815371 -0.000000 -0.000000
LeftFoot -9.171892 2.121158 -19.246994
LeftToeBase -7.193414 -0.000000 0.000000
Spine -1.091583 -2.685944 10.667659
RightShoulder -15.005720 -8.538679 -27.427951
RightArm 23.484162 24.877919 42.793028
RightForeArm -11.640796 -0.000000 18.488541
RightHand 14.942829 -0.000000 2.507929
RightHandThumb1 -24.326973 -0.000000 -32.862282
LeftShoulder -19.839024 0.630081 26.068009
LeftArm 23.913560 -22.384551 -45.730577
LeftForeArm 19.515294 0.000000 2.149469
LeftHand -0.205612 -0.000000 -6.980489
LeftHandThumb1 -26.253704 0.000000 33.147579
Head -17.937005 -0.459565 -3.601391
270
root 0.741300 32.594206 -3.742695 22.644780 -7.970853 4.127190
RightUpLeg -24.817909 -5.182335 -12.690973
RightLeg 3.081315 -0.000000 -0.000000
RightFoot -9.979791 -2.396831 0.778321
RightToeBase 4.719102 -0.000000 -0.000000
LeftUpLeg -21.932975 14.892326 4.456046
LeftLeg 4.840365 -0.000000 -0.000000
LeftFoot -9.081150 2.806495 -19.005617
LeftToeBase -7.630395 -0.000000 0.000000
Spine -0.962158 -2.760641 10.817464
RightShoulder -14.869479 -8.426482 -27.417504
RightArm 23.606793 24.836866 42.874706
RightForeArm -11.718919 -0.000000 18.607476
RightHand 14.814040 -0.000000 2.372133
RightHandThumb1 -24.326973 -0.000000 -32.862282
LeftShoulder -19.703525 0.416324 26.087613
LeftArm 24.297126 -21.937059 -45.689351
LeftForeArm 19.495382 -0.000000 2.262771
LeftHand -0.173536 -0.000000 -6.880734
LeftHandThumb1 -26.253704 0.000000 33.147579
Head -18.294973 -0.582373 -3.577554
271
root 0.777131 32.591615 -3.847042 23.060204 -8.015207 4.246274
RightUpLeg -25.403771 -5.279890 -12.830692
RightLeg 3.059176 -0.000000 -0.000000
RightFoot -9.906096 -2.689990 0.263998
RightToeBase 4.615214 -0.000000 -0.000000
LeftUpLeg -22.620016 15.479331 3.952515
LeftLeg 4.882359 -0.000000 -0.000000
LeftFoot -8.976422 3.461093 -18.563883
LeftToeBase -7.191315 -0.000000 0.000000
Spine -0.760447 -2.869781 11.008662
RightShoulder -14.720903 -8.274511 -27.432458
RightArm 23.722169 24.709154 42.950408
RightForeArm -11.570235 -0.000000 18.676011
RightHand 14.943061 -0.000000 2.179668
RightHandThumb1 -24.326973 -0.000000 -32.862282
LeftShoulder -19.548444 0.295787 26.098534
LeftArm 24.722181 -21.488925 -45.654596
LeftForeArm 19.480066 -0.000000 2.373719
LeftHand -0.096763 -0.000000 -6.771087
LeftHandThumb1 -26.253704 0.000000 33.147579
Head -18.689805 -0.657229 -3.543547
272
root 0.814032 32.588330 -3.945368 23.481824 -8.079570 4.370290
RightUpLeg -26.008339 -5.486059 -12.925548
RightLeg 3.050873 -0.000000 -0.000000
RightFoot -9.834504 -2.820343 -0.217291
RightToeBase 4.384096 -0.000000 -0.000000
LeftUpLeg -23.267745 16.049128 3.438906
LeftLeg 4.842534 -0.000000 -0.000000
LeftFoot -8.746074 4.016740 -18.463366
LeftToeBase -7.092974 -0.000000 0.000000
Spine -0.573959 -2.894625 11.186916
RightShoulder -14.667875 -8.264476 -27.355816
RightArm 23.978109 24.681880 43.024583
RightForeArm -11.552038 -0.000000 18.761360
RightHand 14.880433 0.000000 2.052183
RightHandThumb1 -24.326973 -0.000000 -32.862282
LeftShoulder -19.377653 0.111730 26.110947
LeftArm 25.211460 -20.914972 -45.591430
LeftForeArm 19.601272 -0.000000 2.440505
LeftHand -0.008692 -0.000000 -6.425155
LeftHandThumb1 -26.253704 0.000000 33.147579
Head -19.038861 -0.770673 -3.494215
